inDegrees=no
num_controls=7
num_derivatives=13
num_iterations=136
num_multipliers=7
num_parameters=0
num_slacks=7
num_states=26
objective=0.469794
objective_accelerations=0.063327
objective_balance=0.002086
objective_effort=0.020126
objective_height=0.374754
objective_ligament=0.009501
solver_duration=1867.643552
status=Solve_Succeeded
success=true
DataType=double
version=3
OpenSimVersion=4.5
endheader
time	/jointset/ground_pelvis/pelvis_tilt/value	/jointset/ground_pelvis/pelvis_tx/value	/jointset/ground_pelvis/pelvis_ty/value	/jointset/hip_l/hip_flexion_l/value	/jointset/hip_l/hip_adduction_l/value	/jointset/hip_l/hip_rotation_l/value	/jointset/back/lumbar_extension/value	/jointset/patellofemoral_l/patellar_flexion_l/value	/jointset/knee_l/knee_flexion_l/value	/jointset/knee_l/knee_adduction_l/value	/jointset/knee_l/knee_rotation_l/value	/jointset/ankle_l/ankle_angle_l/value	/jointset/subtalar_l/subtalar_angle_l/value	/jointset/ground_pelvis/pelvis_tilt/speed	/jointset/ground_pelvis/pelvis_tx/speed	/jointset/ground_pelvis/pelvis_ty/speed	/jointset/hip_l/hip_flexion_l/speed	/jointset/hip_l/hip_adduction_l/speed	/jointset/hip_l/hip_rotation_l/speed	/jointset/back/lumbar_extension/speed	/jointset/patellofemoral_l/patellar_flexion_l/speed	/jointset/knee_l/knee_flexion_l/speed	/jointset/knee_l/knee_adduction_l/speed	/jointset/knee_l/knee_rotation_l/speed	/jointset/ankle_l/ankle_angle_l/speed	/jointset/subtalar_l/subtalar_angle_l/speed	/forceset/tau_hip_flexion_l	/forceset/tau_hip_adduction_l	/forceset/tau_hip_rotation_l	/forceset/tau_knee_flexion_l	/forceset/tau_ankle_angle_l	/forceset/tau_subtalar_angle_l	/forceset/tau_lumbar_extension	lambda_cid13_p0	lambda_cid13_p1	lambda_cid13_p2	lambda_cid13_p3	lambda_cid13_p4	lambda_cid13_p5	lambda_cid14_p0	/jointset/ground_pelvis/pelvis_tilt/accel	/jointset/ground_pelvis/pelvis_tx/accel	/jointset/ground_pelvis/pelvis_ty/accel	/jointset/hip_l/hip_flexion_l/accel	/jointset/hip_l/hip_adduction_l/accel	/jointset/hip_l/hip_rotation_l/accel	/jointset/back/lumbar_extension/accel	/jointset/patellofemoral_l/patellar_flexion_l/accel	/jointset/knee_l/knee_flexion_l/accel	/jointset/knee_l/knee_adduction_l/accel	/jointset/knee_l/knee_rotation_l/accel	/jointset/ankle_l/ankle_angle_l/accel	/jointset/subtalar_l/subtalar_angle_l/accel	gamma_cid13_p0	gamma_cid13_p1	gamma_cid13_p2	gamma_cid13_p3	gamma_cid13_p4	gamma_cid13_p5	gamma_cid14_p0
0.5	-0.4116460624584576	-0.06436157059345306	0.7765045560075541	1.181045570604117	-0.3519910418838577	-0.06563640117477505	-0.4080378682294036	0.7138305824683039	0.7138305824683107	-0.0513859243650227	-0.1745280124614967	0.0499255709085118	0.0841693963868371	-1.297397636507764	-0.4021059796263661	-0.4999046112490662	2.873296807899497	0.04085681831218877	0.4347138040529538	-0.28455471510373	1.348155449778247	1.348155449778229	0.2073991930457545	0.0001498980972831989	-0.1274744932494007	-0.0008501909893392722	-0.1662999225184358	-0.005836420879060422	0.005037192687408199	-0.142643480919246	0.08813019846971258	0.01849032563961901	0.1506659410798776	4.200672496951915	-8.093961116976429	0.241923322777411	-6.978692923850615	-435.3739100686117	-74.33909908352979	-14.61274544915253	0.5396236240899849	0.6748200225439503	-0.3880881065554161	-1.695415655621059	0.1091059107891889	-0.366603056414054	1.592545265082971	-1.062890862478387	-1.06289086247837	-0.4257009900678335	0.07825133117643611	-0.03463092431820502	0.1069636588674478	9.959959369169928e-09	-1.358916717844097e-06	-7.055389854082028e-07	-2.963462547772555e-07	-2.205923034837117e-07	1.909178676001824e-07	-1.544495679033075e-07
0.51	-0.4245904080534336	-0.06834830409272753	0.7714873777274067	1.209688466435108	-0.3515778155218411	-0.06131202469241392	-0.4108047982124816	0.7272567276485556	0.727256727648562	-0.04933253215313196	-0.1745264885324073	0.04864906764653679	0.08416544705840075	-1.291303307974377	-0.3951902539468744	-0.5034133820043876	2.85488478911522	0.04177958754321386	0.4300890908869247	-0.2688249971824938	1.336866673991276	1.336866673991248	0.2032827425763508	0.0001372940644130129	-0.1278136133475319	5.540498977473372e-05	-0.1730235313040235	-0.005379999775443517	0.004549558074426546	-0.1431317226110277	0.09004061616832824	0.01944618047476494	0.1553524015771462	4.678227845647459	-8.442875138517564	0.1264078765771774	-7.428822824541024	-439.0148289145762	-74.65065154678828	-14.06356686473305	0.6695422869355754	0.7074553182676424	-0.3146582208915299	-1.973752467083723	0.08287059260153593	-0.5213568089962118	1.564127705046087	-1.192879826878323	-1.192879826879963	-0.4044120335632692	-0.0437632086831124	-0.03172883241488894	0.08194548439399553	-4.577529647417846e-09	-1.171575504058432e-06	-4.895052735935769e-07	-2.579399651686318e-07	-2.276507512064458e-07	2.276270338665813e-07	-1.561226444753511e-07
0.52	-0.437468769399281	-0.0722643790396839	0.7664386344075319	1.238135310582806	-0.3511555598348454	-0.05703608561417292	-0.4134142424864667	0.7405637832929238	0.740563783292928	-0.04732026343757506	-0.1745256400312785	0.04736953792760964	0.08417047127314764	-1.284200786682089	-0.3879742691627461	-0.50621761919455	2.834086471240834	0.04266268330793318	0.4250263232289407	-0.2530575732851721	1.324337542601427	1.324337542601387	0.1991744937794822	1.481250496797225e-05	-0.1280797846398356	0.0009445176473135902	-0.1797471400896079	-0.004923578671825105	0.004061923461435293	-0.1436199643028091	0.09195103386694385	0.02040203530991252	0.160038862074418	5.154908209997984	-8.791185679322096	0.01028138089782356	-7.874860881668494	-442.6675457261992	-74.97381670306589	-13.5180229289954	0.7412621758701043	0.7348718434712393	-0.2471813935235932	-2.17267547364301	0.1011712175280272	-0.4542139548050398	1.600086460300081	-1.310961983054293	-1.310961983054348	-0.424060655560805	0.05627582586145544	-0.02004116315270039	0.103666994552415	-6.743062010329814e-08	-6.962000098559082e-07	2.773919614156693e-07	-1.379616010936904e-07	-3.231440844571179e-07	3.397781541408266e-07	-1.891812798205914e-07
0.53	-0.450271168005989	-0.07610683574877429	0.7613654012495987	1.266362338447576	-0.3507251885482759	-0.05280953917652834	-0.4158659620239192	0.7537393510038094	0.7537393510038132	-0.04535186181523558	-0.1745242714516122	0.04608760997177048	0.08418368816224213	-1.276121589777486	-0.3804718395468707	-0.5083068790209151	2.810936325610087	0.04341039427212461	0.4201773310190902	-0.2372939752428175	1.310577032858174	1.310577032858205	0.1945447541843511	0.000218394494059446	-0.1282863106236337	0.001704668166302127	-0.1863791600654266	-0.004591892052371961	0.003521295702905135	-0.1442921357439919	0.09411633126976435	0.02127168331016762	0.1646128465359212	5.703318133084211	-9.106567167105945	-0.1202883293462702	-8.364884516599673	-446.4108482090441	-75.25552326615698	-12.97625319670845	0.8648206487398157	0.7646984983882499	-0.171552931959122	-2.443636736058465	0.06141011397381477	-0.5162632347565509	1.563350320577565	-1.438399168509686	-1.43839916849897	-0.4766765092697748	-0.003519879406908409	-0.01804951870383435	0.06305073527679711	-1.124179814106091e-07	-3.581331531358677e-07	8.226388597940411e-07	-5.010001177759427e-08	-3.829103890365826e-07	4.299555204159062e-07	-2.126667040370411e-07
0.54	-0.4629880602034537	-0.0798729141661574	0.7562749245624487	1.294346374330386	-0.3502873723364423	-0.04863468693711881	-0.4181602748120732	0.7667713528775533	0.766771352877556	-0.04342860676840496	-0.174522050905022	0.04480419851555128	0.08420467888746742	-1.267099504833506	-0.372698610821291	-0.509666325037926	2.785488074848621	0.04415166836068042	0.4146874835819798	-0.2215762234254866	1.295624375172965	1.295624375173068	0.1901451786780001	0.0001852058895547761	-0.1283764847158507	0.002499284873479747	-0.1930111800412423	-0.004260205432918276	0.002980667944370036	-0.1449643071851748	0.09628162867258454	0.02214133131042326	0.1691868309974274	6.251010309195333	-9.422374757673255	-0.2501597066662259	-8.865311647509591	-450.1717281688065	-75.58206576874292	-12.43856328492289	0.929839783745652	0.7890316654120888	-0.1012186316527721	-2.632296499786727	0.09988384240089955	-0.5823850002570539	1.59091721529534	-1.549391571445288	-1.549391571445297	-0.3780278378047742	0.008921707142216472	0.003229215163496143	0.1105602321902287	-1.376390040854602e-07	-1.71982235758151e-07	1.122655598495698e-06	2.228124613821508e-09	-4.031489172138602e-07	4.958214992876531e-07	-2.255604904088712e-07
0.55	-0.4756100654486198	-0.08356011054891103	0.7511744764298202	1.322064751121957	-0.3498424883412191	-0.04451588970889032	-0.420297786154526	0.7796479328120296	0.7796479328120307	-0.04154990179490672	-0.1745200468245341	0.04352019506189279	0.08423335409488696	-1.257139495068882	-0.3647151513979464	-0.5103027173090128	2.757824646216911	0.04481439940870013	0.4090172939415921	-0.2059565633009092	1.27950005952895	1.279500059528973	0.1855913701934346	0.0002046812214715685	-0.1284247101985773	0.00322494049843913	-0.1998416170737122	-0.003882776510052675	0.002470260831430288	-0.1450509703298156	0.09737668443872251	0.02296334168817427	0.17377843060781	6.447694245808577	-9.687993202674818	-0.3515281818273939	-8.961026793187257	-453.8613929899332	-75.77523747308486	-11.90535545864491	1.053357315832981	0.8068363846721675	-0.02684473564058079	-2.887801667493155	0.04774735635197023	-0.5677410893032309	1.542912675656766	-1.672637871170807	-1.672637871182877	-0.4947197815926279	-0.002917267776065399	-0.008923553005026596	0.05180498629869622	-1.488346023703067e-07	-3.692611341438625e-08	1.294586011040099e-06	3.590238047098066e-08	-3.991149427584333e-07	5.318506250545671e-07	-2.271397643302916e-07
0.5600000000000001	-0.4881276154475369	-0.0871667056766559	0.7460712653323198	1.349495606502685	-0.3493913211114456	-0.04045547540574077	-0.4222800164428092	0.7923575323280064	0.7923575323280074	-0.03971686739181139	-0.1745181235335273	0.04223569432880419	0.08426893321028607	-1.246208455583768	-0.3565783598195384	-0.510218918012257	2.727983792680005	0.04540831527069844	0.4030108985662598	-0.1905200125916192	1.262228291473288	1.26222829147323	0.181011064596462	0.0001690479936895579	-0.1284759406018757	0.003880066469394793	-0.2066720541061792	-0.003505347587187108	0.001959853718512558	-0.1451376334744567	0.09847174020485991	0.02378535206592482	0.1783700302181957	6.644117963191352	-9.954931911737731	-0.4511256186392593	-9.075076489791227	-457.5655382236097	-76.02587283853877	-11.37713730429058	1.124045727843811	0.8196980964247779	0.04281968191570828	-3.067781480825741	0.08612080519661536	-0.6496261472459917	1.554295332237857	-1.77888205377479	-1.778882053774788	-0.3833272602861737	-0.002100004797552781	0.00262823104911887	0.09645430138948187	-1.431996913871483e-07	3.681625488863809e-08	1.312812832195798e-06	4.71919796870326e-08	-3.659539651437619e-07	5.320755270956829e-07	-2.151416233112206e-07
0.5700000000000001	-0.5005312753524963	-0.09069115214685181	0.7409724862147429	1.376617543781252	-0.348934432775377	-0.03645628966436303	-0.424108822318625	0.8048889372623355	0.8048889372623389	-0.03792976641126705	-0.1745163835538707	0.0409509014444325	0.08431091064410239	-1.234375042383919	-0.3482828209634942	-0.5094143986410633	2.696052180237352	0.04595616535067445	0.3967812128226402	-0.1752907915842808	1.243875164743119	1.24387516474309	0.1764006434318599	0.0001729703604693803	-0.1284656255830943	0.004507223653287458	-0.2131274215160538	-0.003391978900934952	0.001487730783479904	-0.1457696432092355	0.1004268361956989	0.02437743450325643	0.1826677317882691	7.107380725649572	-10.14449259016703	-0.5907497979046276	-9.415508891056714	-461.2417913850181	-76.19544991762098	-10.85444971907854	1.235233545064399	0.8387094842247337	0.1175746547821637	-3.308608868717798	0.03699651403769924	-0.6165782284373499	1.499791133068108	-1.890115909088892	-1.890115909084482	-0.501137872070783	0.001004632318272626	0.002792353179069926	0.04444792335611538	-1.37542520512187e-07	8.676865403990137e-08	1.307935183252985e-06	5.483863095167399e-08	-3.336680601278255e-07	5.316683096456049e-07	-2.043877475734873e-07
